<?xml version="1.0" encoding="UTF-8" standalone="no"?>
<!-- Creator: CorelDRAW -->

<svg
   xmlns:dc="http://purl.org/dc/elements/1.1/"
   xmlns:cc="http://creativecommons.org/ns#"
   xmlns:rdf="http://www.w3.org/1999/02/22-rdf-syntax-ns#"
   xmlns:svg="http://www.w3.org/2000/svg"
   xmlns="http://www.w3.org/2000/svg"
   xmlns:sodipodi="http://sodipodi.sourceforge.net/DTD/sodipodi-0.dtd"
   xmlns:inkscape="http://www.inkscape.org/namespaces/inkscape"
   xml:space="preserve"
   width="376"
   height="376"
   style="clip-rule:evenodd;fill-rule:evenodd;image-rendering:optimizeQuality;shape-rendering:geometricPrecision;text-rendering:geometricPrecision"
   id="svg2"
   version="1.1"
   inkscape:version="0.91 r13725"
   sodipodi:docname="Coloured_Voronoi_3D_slice.svg"><metadata
     id="metadata163"><rdf:RDF><cc:Work
         rdf:about=""><dc:format>image/svg+xml</dc:format><dc:type
           rdf:resource="http://purl.org/dc/dcmitype/StillImage" /><dc:title></dc:title></cc:Work></rdf:RDF></metadata><sodipodi:namedview
     pagecolor="#ffffff"
     bordercolor="#666666"
     borderopacity="1"
     objecttolerance="10"
     gridtolerance="10"
     guidetolerance="10"
     inkscape:pageopacity="0"
     inkscape:pageshadow="2"
     inkscape:window-width="1920"
     inkscape:window-height="1017"
     id="namedview161"
     showgrid="false"
     inkscape:zoom="1.8101934"
     inkscape:cx="220.8616"
     inkscape:cy="187.3532"
     inkscape:window-x="1272"
     inkscape:window-y="287"
     inkscape:window-maximized="1"
     inkscape:current-layer="svg2" /><defs
     id="defs4"><style
       type="text/css"
       id="style6"><![CDATA[
    .fil21 {fill:#0243A1}
    .fil80 {fill:#044B45}
    .fil8 {fill:#0F80D6}
    .fil89 {fill:#108C19}
    .fil9 {fill:#114693}
    .fil128 {fill:#1205E6}
    .fil36 {fill:#12095B}
    .fil32 {fill:#13768A}
    .fil20 {fill:#148C55}
    .fil110 {fill:#15116E}
    .fil107 {fill:#163350}
    .fil117 {fill:#167E3A}
    .fil18 {fill:#16BB24}
    .fil136 {fill:#16BFFD}
    .fil67 {fill:#179935}
    .fil144 {fill:#18126B}
    .fil56 {fill:#189A3F}
    .fil116 {fill:#1B72E7}
    .fil72 {fill:#1BCD24}
    .fil49 {fill:#1D7A7E}
    .fil139 {fill:#1E1245}
    .fil94 {fill:#1E13AA}
    .fil100 {fill:#1EBDD7}
    .fil12 {fill:#209AD4}
    .fil28 {fill:#221D7F}
    .fil39 {fill:#226B9A}
    .fil61 {fill:#23896A}
    .fil27 {fill:#26663C}
    .fil30 {fill:#2AFCFE}
    .fil95 {fill:#2E70EB}
    .fil23 {fill:#2E8DEE}
    .fil48 {fill:#2E9729}
    .fil122 {fill:#2F23F0}
    .fil145 {fill:#326152}
    .fil132 {fill:#33FC35}
    .fil1 {fill:#3430F6}
    .fil25 {fill:#345F9C}
    .fil59 {fill:#35A8B6}
    .fil86 {fill:#362C5A}
    .fil55 {fill:#373C6B}
    .fil41 {fill:#3B9AA5}
    .fil45 {fill:#3C0FA0}
    .fil47 {fill:#41A381}
    .fil92 {fill:#43CB14}
    .fil54 {fill:#460F28}
    .fil29 {fill:#465889}
    .fil31 {fill:#49039A}
    .fil141 {fill:#4B7BB9}
    .fil44 {fill:#4D93A5}
    .fil113 {fill:#4E9D68}
    .fil70 {fill:#4FDCCB}
    .fil120 {fill:#501AB9}
    .fil118 {fill:#50A864}
    .fil24 {fill:#524492}
    .fil73 {fill:#551F81}
    .fil93 {fill:#56F718}
    .fil42 {fill:#5741C8}
    .fil140 {fill:#580DBE}
    .fil57 {fill:#583E45}
    .fil52 {fill:#58662A}
    .fil68 {fill:#58CE45}
    .fil121 {fill:#594D4C}
    .fil43 {fill:#5C47C8}
    .fil109 {fill:#5CD772}
    .fil129 {fill:#5DAAE6}
    .fil98 {fill:#5EB09B}
    .fil91 {fill:#6106B5}
    .fil75 {fill:#620EC1}
    .fil69 {fill:#656748}
    .fil10 {fill:#65C97A}
    .fil14 {fill:#66B857}
    .fil50 {fill:#68DBCF}
    .fil76 {fill:#695894}
    .fil119 {fill:#69C9EE}
    .fil142 {fill:#6AB5AE}
    .fil126 {fill:#6B926A}
    .fil125 {fill:#6E3EC7}
    .fil114 {fill:#6FA857}
    .fil3 {fill:#728E59}
    .fil82 {fill:#7450CF}
    .fil79 {fill:#750974}
    .fil74 {fill:#76092E}
    .fil112 {fill:#842C7B}
    .fil124 {fill:#87BDA6}
    .fil33 {fill:#888611}
    .fil15 {fill:#8DF97D}
    .fil19 {fill:#8F5A26}
    .fil133 {fill:#8FDFD3}
    .fil7 {fill:#90869C}
    .fil60 {fill:#919B50}
    .fil77 {fill:#91E206}
    .fil123 {fill:#924A38}
    .fil138 {fill:#92B56D}
    .fil87 {fill:#950959}
    .fil51 {fill:#9546F0}
    .fil17 {fill:#981CAA}
    .fil65 {fill:#99788E}
    .fil22 {fill:#9A79A3}
    .fil99 {fill:#9AA127}
    .fil84 {fill:#9AE09A}
    .fil16 {fill:#9B6DFC}
    .fil90 {fill:#9BD35F}
    .fil40 {fill:#A163D6}
    .fil4 {fill:#A896C4}
    .fil62 {fill:#A9E209}
    .fil108 {fill:#ACBA0C}
    .fil53 {fill:#AF2F6C}
    .fil11 {fill:#AF73CD}
    .fil58 {fill:#B0B666}
    .fil78 {fill:#B0E325}
    .fil96 {fill:#B1589F}
    .fil6 {fill:#B2A4FB}
    .fil85 {fill:#B30EAF}
    .fil64 {fill:#B479C4}
    .fil88 {fill:#B71E00}
    .fil34 {fill:#BA190D}
    .fil37 {fill:#BAB20E}
    .fil38 {fill:#BDA92B}
    .fil115 {fill:#BE5802}
    .fil104 {fill:#C6919C}
    .fil46 {fill:#C83256}
    .fil71 {fill:#CA72F2}
    .fil106 {fill:#CB5107}
    .fil135 {fill:#CB652C}
    .fil111 {fill:#CC881A}
    .fil105 {fill:#CE7805}
    .fil134 {fill:#CF49D7}
    .fil13 {fill:#D101FC}
    .fil83 {fill:#D2EE4D}
    .fil5 {fill:#D900D5}
    .fil63 {fill:#DFA2EA}
    .fil2 {fill:#E2AA1C}
    .fil81 {fill:#E366C2}
    .fil130 {fill:#E57191}
    .fil143 {fill:#E81547}
    .fil127 {fill:#E89188}
    .fil131 {fill:#EA005B}
    .fil103 {fill:#EC4248}
    .fil66 {fill:#EE60B0}
    .fil137 {fill:#F1C661}
    .fil26 {fill:#F266E0}
    .fil0 {fill:#F3526F}
    .fil102 {fill:#F7202C}
    .fil101 {fill:#FAF587}
    .fil35 {fill:#FB2931}
    .fil97 {fill:#FC2D24}
   ]]></style></defs><path
     style="fill:#f33a53;fill-opacity:1"
     d="m 121.23647,5.5939168 40.23105,3.4336032 1.12928,-9.03328 -42.90752,0 z"
     id="_81134776"
     inkscape:connector-curvature="0"
     sodipodi:nodetypes="ccccc" /><path
     style="fill:#3430f6"
     d="m 161.46752,9.02752 1.12928,3.3872 14.67904,-12.42048 -14.67904,0 z"
     id="_24079248"
     inkscape:connector-curvature="0"
     sodipodi:nodetypes="ccccc" /><path
     style="fill:#e2aa1c"
     d="m 325.19296,14.67296 1.1296,0 13.5488,-14.67872 -19.1936,0 z"
     id="_39936312"
     inkscape:connector-curvature="0"
     sodipodi:nodetypes="ccccc" /><path
     style="fill:#728e59"
     d="m 108.39776,-0.00576 -41.77824,0 20.32448,24.84128 z"
     id="_42563272"
     inkscape:connector-curvature="0"
     sodipodi:nodetypes="cccc" /><path
     style="fill:#a896c4"
     d="M 7.904,-0.00576 28.22848,24.83552 29.35776,25.96448 44.03648,29.352 62.10304,-0.00576 Z"
     id="_43299184"
     inkscape:connector-curvature="0"
     sodipodi:nodetypes="cccccc" /><path
     style="fill:#d900d5"
     d="m 235.99136,-0.00576 5.64544,25.97024 9.03328,3.38752 12.42048,-9.03328 3.38752,-20.32448 z"
     id="_43200488"
     inkscape:connector-curvature="0"
     sodipodi:nodetypes="cccccc" /><path
     style="fill:#b2a4fb"
     d="m 190.82528,-0.00576 3.38752,44.03648 27.09952,5.64576 20.32448,-23.712 -5.64544,-25.97024 z"
     id="_43209776"
     inkscape:connector-curvature="0"
     sodipodi:nodetypes="cccccc" /><path
     style="fill:#90869c"
     d="m 266.47808,-0.00576 -3.38752,20.32448 3.38752,13.54976 16.93728,3.38752 9.03296,-37.26176 z"
     id="_43200408"
     inkscape:connector-curvature="0"
     sodipodi:nodetypes="cccccc" /><path
     style="fill:#0f80d6"
     d="m 161.46752,9.02752 -40.16,-3.41504 0.64,15.83552 27.09952,18.06624 11.29152,-10.16224 2.25824,-16.93728 z"
     id="_40289136"
     inkscape:connector-curvature="0"
     sodipodi:nodetypes="ccccccc" /><path
     style="fill:#114693"
     d="m 266.47808,33.86848 -3.38752,-13.54976 -12.42048,9.03328 0,7.904 3.38752,2.25824 11.2912,-3.38752 z"
     id="_41118040"
     inkscape:connector-curvature="0"
     sodipodi:nodetypes="ccccccc" /><path
     style="fill:#65c97a"
     d="m 190.82528,-0.00576 -13.54944,0 -14.67904,12.42048 -2.25824,16.93728 32.74528,14.67872 1.12896,0 z"
     id="_43200544"
     inkscape:connector-curvature="0"
     sodipodi:nodetypes="ccccccc" /><path
     style="fill:#704a83;fill-opacity:1"
     d="m 320.67776,-0.00576 -28.22944,0 -9.03296,37.26176 7.904,7.904 9.03296,2.25824 24.84064,-32.74528 z"
     id="_42926800"
     inkscape:connector-curvature="0"
     sodipodi:nodetypes="ccccccc" /><path
     style="fill:#c99ad4;fill-opacity:1"
     d="M 28.22848,24.83552 0,50.80576 l 0,9.03328 21.45376,0 7.904,-33.87456 z"
     id="_42926408"
     inkscape:connector-curvature="0"
     sodipodi:nodetypes="cccccc" /><path
     id="_43251640"
     class="fil13"
     d="m 86.944,24.83552 1.12928,24.84096 4.51648,1.12928 5.64576,-2.25824 23.712,-27.09952 -0.64,-15.83552 -1.61824,-5.61824 -11.29152,0 z"
     inkscape:connector-curvature="0"
     style="fill:#f601fc;fill-opacity:1"
     sodipodi:nodetypes="ccccccccc" /><path
     style="fill:#66b857"
     d="M 0,50.80576 28.22848,24.83552 7.904,-0.00576 l -7.904,0 z"
     id="_43136064"
     inkscape:connector-curvature="0"
     sodipodi:nodetypes="ccccc" /><path
     id="_43126384"
     class="fil15"
     d="m 221.31232,49.67648 1.12928,1.12928 28.22848,-13.54976 0,-7.904 -9.03328,-3.38752 z"
     inkscape:connector-curvature="0"
     style="fill:#8df97d"
     sodipodi:nodetypes="cccccc" /><path
     style="fill:#9b6dfc"
     d="m 266.47808,33.86848 -1.12928,2.25824 13.54976,16.93728 12.4208,-7.904 -7.904,-7.904 z"
     id="_41268672"
     inkscape:connector-curvature="0"
     sodipodi:nodetypes="cccccc" /><path
     id="_43178504"
     class="fil17"
     d="M 44.03648,29.352 63.232,54.19328 88.07328,49.67648 86.944,24.83552 66.61952,-0.00576 l -4.51648,0 z"
     inkscape:connector-curvature="0"
     style="fill:#981caa"
     sodipodi:nodetypes="ccccccc" /><path
     style="fill:#16bb24"
     d="m 339.87136,-0.00576 -13.5488,14.67872 27.1008,41.77856 22.5824,0 0,-56.45728 z"
     id="_42927024"
     inkscape:connector-curvature="0"
     sodipodi:nodetypes="cccccc" /><path
     style="fill:#8f5a26"
     d="m 326.32256,14.67296 -1.1296,0 -24.84064,32.74528 1.12928,1.12928 45.16736,12.42048 6.7744,-4.51648 z"
     id="_41283896"
     inkscape:connector-curvature="0"
     sodipodi:nodetypes="ccccccc" /><path
     style="fill:#148c55"
     d="m 305.99808,58.70976 39.52128,3.38752 1.1296,-1.12928 -45.16736,-12.42048 z"
     id="_40865376"
     inkscape:connector-curvature="0"
     sodipodi:nodetypes="ccccc" /><path
     style="fill:#0243a1"
     d="M 149.04704,39.51424 121.94752,21.448 l -23.712,27.09952 37.26176,19.19552 11.29152,0 3.38752,-7.904 z"
     id="_41398528"
     inkscape:connector-curvature="0"
     sodipodi:nodetypes="ccccccc" /><path
     style="fill:#9a79a3"
     d="M 193.08384,44.03072 160.33856,29.352 l -11.29152,10.16224 1.12928,20.3248 21.45376,7.904 3.3872,-1.12928 z"
     id="_42160344"
     inkscape:connector-curvature="0"
     sodipodi:nodetypes="ccccccc" /><path
     style="fill:#2e8dee"
     d="m 44.03648,29.352 -14.67872,-3.38752 -7.904,33.87456 21.45376,13.54944 20.32448,-16.93696 0,-2.25824 z"
     id="_42206432"
     inkscape:connector-curvature="0"
     sodipodi:nodetypes="ccccccc" /><path
     style="fill:#524492"
     d="m 138.8848,77.90528 7.904,-1.12928 0,-9.03296 -11.29152,0 z"
     id="_41160376"
     inkscape:connector-curvature="0"
     sodipodi:nodetypes="ccccc" /><path
     id="_42882816"
     class="fil25"
     d="M 254.0576,39.51424 249.5408,76.776 278.797,75.705261 278.89856,53.064 265.3488,36.12672 Z"
     inkscape:connector-curvature="0"
     style="fill:#345f9c"
     sodipodi:nodetypes="cccccc" /><path
     style="fill:#f2665f;fill-opacity:1"
     d="m 98.23552,48.54752 -5.64576,2.25824 14.67904,32.74528 31.616,-5.64576 -3.38752,-10.16224 z"
     id="_43126000"
     inkscape:connector-curvature="0"
     sodipodi:nodetypes="cccccc" /><path
     style="fill:#26663c"
     d="m 171.63008,67.74304 -21.45376,-7.904 -3.38752,7.904 0,9.03296 9.03328,9.03328 2.25824,0 z"
     id="_41236032"
     inkscape:connector-curvature="0"
     sodipodi:nodetypes="ccccccc" /><path
     style="fill:#221d7f"
     d="M 63.232,56.45152 42.90752,73.38848 41.77824,77.90528 51.9408,88.06752 65.49024,67.74304 Z"
     id="_42915328"
     inkscape:connector-curvature="0"
     sodipodi:nodetypes="cccccc" /><path
     id="_41926536"
     class="fil29"
     d="m 222.4416,50.80576 5.64544,37.26176 14.67904,-6.77472 6.77472,-4.5168 4.5168,-37.26176 -3.38752,-2.25824 z"
     inkscape:connector-curvature="0"
     style="fill:#465889"
     sodipodi:nodetypes="ccccccc" /><path
     style="fill:#2afcfe"
     d="m 21.45376,59.83904 -21.45376,0 0,21.45376 21.45376,7.904 20.32448,-11.29152 1.12928,-4.5168 z"
     id="_42640608"
     inkscape:connector-curvature="0"
     sodipodi:nodetypes="ccccccc" /><path
     style="fill:#49039a"
     d="m 278.79552,75.70176 6.87808,13.49504 18.06624,2.25824 2.25824,-32.74528 -4.51648,-10.16224 -1.12928,-1.12928 -9.03296,-2.25824 -12.4208,7.904 z"
     id="_42354456"
     inkscape:connector-curvature="0"
     sodipodi:nodetypes="ccccccccc" /><path
     style="fill:#a890a8;fill-opacity:1"
     d="m 305.99808,58.70976 -2.25824,32.74528 4.51648,0 29.35904,-11.29152 7.904,-18.06624 z"
     id="_42632040"
     inkscape:connector-curvature="0"
     sodipodi:nodetypes="cccccc" /><path
     style="fill:#888611"
     d="M 171.63008,67.74304 158.08032,85.80928 191.95456,95.97152 175.01728,66.61376 Z"
     id="_42629880"
     inkscape:connector-curvature="0"
     sodipodi:nodetypes="ccccc" /><path
     style="fill:#ba190d"
     d="M 100.49376,95.97152 107.2688,83.55104 92.58976,50.80576 88.07328,49.67648 63.232,54.19328 l 0,2.25824 2.25824,11.29152 28.786045,34.97195 z"
     id="_41135768"
     inkscape:connector-curvature="0"
     sodipodi:nodetypes="ccccccccc" /><path
     style="fill:#fb2931"
     d="m 285.6736,89.1968 -6.87808,-13.49504 -29.25472,1.07424 -6.77472,4.5168 30.48704,23.712 z"
     id="_42211008"
     inkscape:connector-curvature="0"
     sodipodi:nodetypes="cccccc" /><path
     style="fill:#12095b"
     d="m 208.89184,107.26304 2.25824,1.12896 11.29152,-5.64576 5.64544,-14.67872 -5.64544,-37.26176 -1.12928,-1.12928 -27.09952,-5.64576 -1.12896,0 -18.06656,22.58304 16.93728,29.35776 z"
     id="_43177568"
     inkscape:connector-curvature="0"
     sodipodi:nodetypes="ccccccccccc" /><path
     style="fill:#bab20e"
     d="m 308.25632,91.45504 28.22944,16.93696 4.5152,-1.12896 -3.3856,-27.09952 z"
     id="_42361568"
     inkscape:connector-curvature="0"
     sodipodi:nodetypes="ccccc" /><path
     style="fill:#bda92b"
     d="m 376.00576,108.392 0,-25.97024 -11.2928,22.58304 z"
     id="_43164728"
     inkscape:connector-curvature="0"
     sodipodi:nodetypes="cccc" /><path
     style="fill:#226b9a"
     d="m 342.13056,108.392 5.6448,0 16.9376,-3.3872 11.2928,-22.58304 0,-25.97024 -22.5824,0 -6.7744,4.51648 -1.1296,1.12928 -7.904,18.06624 3.3856,27.09952 z"
     id="_42927360"
     inkscape:connector-curvature="0"
     sodipodi:nodetypes="ccccccccccc" /><path
     style="fill:#760000;fill-opacity:1"
     d="m 346.64896,114.03776 1.1264,-5.64576 -5.6448,0 z"
     id="_42087288"
     inkscape:connector-curvature="0"
     sodipodi:nodetypes="cccc" /><path
     style="fill:#3b9aa5"
     d="m 142.27232,115.16704 7.904,-5.64576 2.25824,-3.38752 3.38752,-20.32448 -9.03328,-9.03328 -7.904,1.12928 -31.616,5.64576 -6.77504,12.42048 6.77504,10.16224 z"
     id="_42087648"
     inkscape:connector-curvature="0"
     sodipodi:nodetypes="cccccccccc" /><path
     style="fill:#5741c8"
     d="m 191.95456,95.97152 -33.87424,-10.16224 -2.25824,0 -3.38752,20.32448 30.48672,13.54976 4.5168,-2.25824 21.45376,-10.16224 z"
     id="_39563528"
     inkscape:connector-curvature="0"
     sodipodi:nodetypes="cccccccc" /><path
     style="fill:#9c59ff;fill-opacity:1"
     d="m 187.43808,117.42528 21.45376,-2.25824 2.25824,-6.77504 -2.25824,-1.12896 z"
     id="_43136176"
     inkscape:connector-curvature="0"
     sodipodi:nodetypes="ccccc" /><path
     id="_42927248"
     class="fil44"
     d="m 51.9408,88.06752 16.93696,31.616 15.287987,-2.15278 L 94.281114,102.71498 65.49024,67.74304 Z"
     inkscape:connector-curvature="0"
     style="fill:#4d93a5"
     sodipodi:nodetypes="cccccc" /><path
     style="fill:#3c0fa0"
     d="m 268.73632,120.8128 4.5168,-15.808 -30.48704,-23.712 -14.67904,6.77472 -5.64544,14.67872 3.3872,2.25856 41.77856,15.808 z"
     id="_40865040"
     inkscape:connector-curvature="0"
     sodipodi:nodetypes="cccccccc" /><path
     style="fill:#c83256"
     d="m 303.73984,91.45504 -18.06624,-2.25824 -12.42048,15.808 -4.5168,15.808 10.16224,3.3872 22.58304,-9.03296 z"
     id="_43178792"
     inkscape:connector-curvature="0"
     sodipodi:nodetypes="ccccccc" /><path
     style="fill:#41a381"
     d="m 303.73984,91.45504 -2.25824,23.712 11.29152,11.29152 23.71264,-18.06656 -28.22944,-16.93696 z"
     id="_22943280"
     inkscape:connector-curvature="0"
     sodipodi:nodetypes="cccccc" /><path
     style="fill:#2e9729"
     d="m 267.60736,120.8128 4.51648,10.16224 6.77472,-6.77504 -10.16224,-3.3872 z"
     id="_41901704"
     inkscape:connector-curvature="0"
     sodipodi:nodetypes="ccccc" /><path
     id="_42934248"
     class="fil49"
     d="M 94.289226,102.70204 84.16928,117.53056 86.944,132.104 l 3.38752,0 16.93728,-25.97024 -6.77504,-10.16224 z"
     inkscape:connector-curvature="0"
     style="fill:#1d7a7e"
     sodipodi:nodetypes="ccccccc" /><path
     style="fill:#68dbcf"
     d="M 0,135.49152 31.616,130.97504 21.45376,89.1968 0,81.2928 Z"
     id="_42550128"
     inkscape:connector-curvature="0"
     sodipodi:nodetypes="ccccc" /><path
     style="fill:#9546f0"
     d="M 68.87776,119.68352 51.9408,88.06752 41.77824,77.90528 21.45376,89.1968 31.616,130.97504 38.39104,135.49152 66.61952,124.2 Z"
     id="_43348440"
     inkscape:connector-curvature="0"
     sodipodi:nodetypes="cccccccc" /><path
     style="fill:#58662a"
     d="m 141.14304,136.6208 9.03328,-27.09952 -7.904,5.64576 z"
     id="_41890088"
     inkscape:connector-curvature="0"
     sodipodi:nodetypes="cccc" /><path
     style="fill:#af2f6c"
     d="m 376.00576,108.392 -11.2928,-3.3872 -16.9376,3.3872 -1.1264,5.64576 3.3856,27.09952 25.9712,-9.03328 z"
     id="_81133648"
     inkscape:connector-curvature="0"
     sodipodi:nodetypes="ccccccc" /><path
     style="fill:#460f28"
     d="M 84.16928,117.53056 68.87776,119.68352 66.61952,124.2 68.87776,142.26656 86.944,132.104 Z"
     id="_81221856"
     inkscape:connector-curvature="0"
     sodipodi:nodetypes="cccccc" /><path
     style="fill:#373c6b"
     d="m 206.6336,130.97504 2.25824,-15.808 -21.45376,2.25824 -4.5168,2.25824 3.38752,16.93728 9.03328,6.77472 z"
     id="_42606544"
     inkscape:connector-curvature="0"
     sodipodi:nodetypes="ccccccc" /><path
     style="fill:#189a3f"
     d="m 226.95808,144.5248 -1.12928,-39.52 -3.3872,-2.25856 -11.29152,5.64576 -2.25824,6.77504 -2.25824,15.808 4.51648,11.29152 z"
     id="_42606736"
     inkscape:connector-curvature="0"
     sodipodi:nodetypes="cccccccc" /><path
     style="fill:#583e45"
     d="m 311.64384,145.65376 1.12928,-19.1952 -11.29152,-11.29152 -22.58304,9.03296 -6.77472,6.77504 1.12928,13.54976 z"
     id="_42606928"
     inkscape:connector-curvature="0"
     sodipodi:nodetypes="ccccccc" /><path
     id="_41103920"
     class="fil58"
     d="m 38.39104,135.49152 16.93696,14.67904 7.904,0 5.64576,-7.904 L 66.61952,124.2 Z"
     inkscape:connector-curvature="0"
     style="fill:#b0b666"
     sodipodi:nodetypes="cccccc" /><path
     style="fill:#b68221;fill-opacity:1"
     d="m 142.27232,115.16704 -35.00352,-9.03328 -16.93728,25.97024 27.09952,22.58304 21.45376,-10.16224 2.25824,-7.904 z"
     id="_42802768"
     inkscape:connector-curvature="0"
     sodipodi:nodetypes="ccccccc" /><path
     style="fill:#919b50"
     d="m 179.53408,153.55776 13.54976,-3.3872 2.25824,-6.77504 -9.03328,-6.77472 z"
     id="_42802960"
     inkscape:connector-curvature="0"
     sodipodi:nodetypes="ccccc" /><path
     style="fill:#4279c8;fill-opacity:1"
     d="m 206.6336,130.97504 -11.29152,12.42048 -2.25824,6.77504 10.16224,7.904 7.904,-15.808 z"
     id="_42803152"
     inkscape:connector-curvature="0"
     sodipodi:nodetypes="cccccc" /><path
     style="fill:#a9e209"
     d="m 272.12384,130.97504 -4.51648,-10.16224 -41.77856,-15.808 1.12928,39.52 33.87424,13.54976 10.16224,-7.904 2.25856,-5.64576 z"
     id="_42368592"
     inkscape:connector-curvature="0"
     sodipodi:nodetypes="cccccccc" /><path
     style="fill:#dfa2ea"
     d="m 164.85504,161.46176 14.67904,-7.904 6.77472,-16.93696 -3.38752,-16.93728 -30.48672,-13.54976 -2.25824,3.38752 -9.03328,27.09952 -2.25824,7.904 10.16224,10.16224 z"
     id="_42368784"
     inkscape:connector-curvature="0"
     sodipodi:nodetypes="cccccccccc" /><path
     style="fill:#b479c4"
     d="m 346.64896,154.68704 3.3856,-13.54976 -3.3856,-27.09952 -4.5184,-5.64576 -1.1296,-1.12896 -4.5152,1.12896 -23.71264,18.06656 -1.12928,19.1952 15.80832,15.808 z"
     id="_42496080"
     inkscape:connector-curvature="0"
     sodipodi:nodetypes="cccccccccc" /><path
     style="fill:#99788e"
     d="m 376.00576,132.104 -25.9712,9.03328 -3.3856,13.54976 7.904,10.16224 21.4528,-2.25824 z"
     id="_42496272"
     inkscape:connector-curvature="0"
     sodipodi:nodetypes="cccccc" /><path
     style="fill:#ee60b0"
     d="m 152.43456,168.2368 6.77472,2.25824 5.64576,-9.03328 -15.808,-6.77472 z"
     id="_42351680"
     inkscape:connector-curvature="0"
     sodipodi:nodetypes="ccccc" /><path
     style="fill:#179935"
     d="M 117.43104,154.68704 90.33152,132.104 l -3.38752,0 -18.06624,10.16256 -5.64576,7.904 19.19552,20.32448 33.87424,1.12928 z"
     id="_42351568"
     inkscape:connector-curvature="0"
     sodipodi:nodetypes="cccccccc" /><path
     style="fill:#9b6dfc"
     d="m 346.64896,154.68704 -19.1968,6.77472 0,10.16256 23.712,4.51648 3.3888,-11.29152 z"
     id="_42351456"
     inkscape:connector-curvature="0"
     sodipodi:nodetypes="cccccc" /><path
     style="fill:#58ce45"
     d="m 149.04704,154.68704 -10.16224,-10.16224 -21.45376,10.16224 -1.12928,16.93728 5.64576,5.64576 30.48704,-9.03328 z"
     id="_42351344"
     inkscape:connector-curvature="0"
     sodipodi:nodetypes="ccccccc" /><path
     style="fill:#656748"
     d="m 270.99456,150.17056 -10.16224,7.904 -3.38752,14.67872 19.19552,10.16224 5.64576,-15.808 z"
     id="_42351232"
     inkscape:connector-curvature="0"
     sodipodi:nodetypes="cccccc" /><path
     style="fill:#4fdccb"
     d="m 327.45216,171.62432 0,-10.16256 -15.80832,-15.808 -38.39072,-1.12896 -2.25856,5.64576 11.29152,16.93696 27.09952,15.808 13.55136,-5.64544 z"
     id="_42351120"
     inkscape:connector-curvature="0"
     sodipodi:nodetypes="ccccccccc" /><path
     id="_42351008"
     class="fil71"
     d="m 0,135.49152 0,47.424 23.712,2.25856 2.25824,-1.12928 L 55.328,150.17056 38.39104,135.49152 31.616,130.97504 Z"
     inkscape:connector-curvature="0"
     style="fill:#ca72f2"
     sodipodi:nodetypes="cccccccc" /><path
     style="fill:#1bcd24"
     d="m 196.38941,189.46525 11.37315,-7.67869 -4.51648,-23.712 -10.16224,-7.904 -13.54976,3.3872 -14.67904,7.904 -5.64576,9.03328 11.29152,16.93728 z"
     id="_42350896"
     inkscape:connector-curvature="0"
     sodipodi:nodetypes="ccccccccc" /><path
     style="fill:#551f81"
     d="m 257.4448,172.75328 3.38752,-14.67872 -33.87424,-13.54976 -15.808,-2.25824 -7.904,15.808 4.51648,23.712 28.2288,13.54976 19.1952,-19.19552 z"
     id="_41623112"
     inkscape:connector-curvature="0"
     sodipodi:nodetypes="ccccccccc" /><path
     style="fill:#76092e"
     d="m 376.00576,162.59104 -21.4528,2.25824 -3.3888,11.29152 22.5824,24.84128 2.2592,0 z"
     id="_43354584"
     inkscape:connector-curvature="0"
     sodipodi:nodetypes="cccccc" /><path
     id="_43068592"
     class="fil75"
     d="m 25.97024,184.0448 10.16224,12.42048 15.80832,6.77504 22.58272,-10.16224 7.904,-22.58304 -19.19552,-20.32448 -7.904,0 z"
     inkscape:connector-curvature="0"
     style="fill:#620ec1"
     sodipodi:nodetypes="cccccccc" /><path
     style="fill:#695894"
     d="m 23.712,185.17408 2.25824,19.1952 7.904,-1.12896 2.25824,-6.77504 -10.16224,-12.42048 z"
     id="_43022424"
     inkscape:connector-curvature="0"
     sodipodi:nodetypes="cccccc" /><path
     style="fill:#629a04;fill-opacity:1"
     d="m 309.3856,182.91552 -5.64576,22.58304 6.77504,0 12.42208,-28.22848 z"
     id="_41268504"
     inkscape:connector-curvature="0"
     sodipodi:nodetypes="ccccc" /><path
     style="fill:#b0e325"
     d="m 282.28608,167.10752 -5.64576,15.808 21.45376,23.71232 5.64576,-1.12928 5.64576,-22.58304 z"
     id="_42776496"
     inkscape:connector-curvature="0"
     sodipodi:nodetypes="cccccc" /><path
     style="fill:#750974"
     d="m 257.4448,172.75328 -2.25824,3.38752 32.74528,39.52 10.16224,-9.03296 -21.45376,-23.71232 z"
     id="_41948368"
     inkscape:connector-curvature="0"
     sodipodi:nodetypes="cccccc" /><path
     style="fill:#044b45"
     d="m 163.72608,204.36928 6.77472,-16.93696 -11.29152,-16.93728 -6.77472,-2.25824 -30.48704,9.03328 3.38752,31.616 19.19552,6.77472 12.42048,0 z"
     id="_81383432"
     inkscape:connector-curvature="0"
     sodipodi:nodetypes="ccccccccc" /><path
     style="fill:#e366c2"
     d="m 170.5008,187.43232 -6.77472,16.93696 35.0032,12.4208 -2.25824,-27.32483 z"
     id="_42630464"
     inkscape:connector-curvature="0"
     sodipodi:nodetypes="ccccc" /><path
     style="fill:#37bfcf;fill-opacity:1"
     d="m 36.13248,196.46528 -2.25824,6.77504 19.19552,15.808 2.25824,0 -3.3872,-15.808 z"
     id="_42524432"
     inkscape:connector-curvature="0"
     sodipodi:nodetypes="cccccc" /><path
     style="fill:#d2ee4d"
     d="m 373.74656,200.98208 -22.5824,-24.84128 -23.712,-4.51648 -4.5152,5.64576 -12.42208,28.22848 13.54848,13.54976 7.904,2.25824 z"
     id="_42855496"
     inkscape:connector-curvature="0"
     sodipodi:nodetypes="cccccccc" /><path
     style="fill:#9ae09a"
     d="m 77.91104,222.43584 -3.38752,-29.35776 -22.58272,10.16224 3.3872,15.808 11.29152,7.904 1.12928,0 z"
     id="_42540520"
     inkscape:connector-curvature="0"
     sodipodi:nodetypes="ccccccc" /><path
     style="fill:#b30eaf"
     d="m 121.94752,177.27008 -5.64576,-5.64576 -33.87424,-1.12928 -7.904,22.58304 3.38752,29.35776 29.35776,6.77472 18.06624,-20.32448 z"
     id="_42562960"
     inkscape:connector-curvature="0"
     sodipodi:nodetypes="cccccccc" /><path
     style="fill:#362c5a"
     d="m 255.18656,176.1408 -19.1952,19.19552 5.64544,33.87424 38.39104,-4.51648 7.904,-9.03328 z"
     id="_42850840"
     inkscape:connector-curvature="0"
     sodipodi:nodetypes="cccccc" /><path
     style="fill:#950959"
     d="m 25.97024,204.36928 -9.03296,30.48704 36.13248,-15.808 -19.19552,-15.808 z"
     id="_81134080"
     inkscape:connector-curvature="0"
     sodipodi:nodetypes="ccccc" /><path
     style="fill:#b71e00"
     d="m 280.02784,226.95232 0,-2.25824 -38.39104,4.51648 -1.12896,10.16224 1.12896,0 12.4208,-2.25824 z"
     id="_42850728"
     inkscape:connector-curvature="0"
     sodipodi:nodetypes="ccccccc" /><path
     style="fill:#108c19"
     d="M 23.712,185.17408 0,182.91552 l 0,62.10304 10.16224,0 6.77504,-10.16224 9.03296,-30.48704 z"
     id="_42770496"
     inkscape:connector-curvature="0"
     sodipodi:nodetypes="ccccccc" /><path
     style="fill:#810000;fill-opacity:1"
     d="m 0,248.40608 11.29152,-2.25824 -1.12928,-1.12928 -10.16224,0 z"
     id="_42153176"
     inkscape:connector-curvature="0"
     sodipodi:nodetypes="ccccc" /><path
     style="fill:#6106b5"
     d="m 373.74656,200.98208 -41.7792,20.32448 9.0336,28.22848 35.0048,-20.32448 0,-28.22848 z"
     id="_41716880"
     inkscape:connector-curvature="0"
     sodipodi:nodetypes="cccccc" /><path
     style="fill:#43cbc5;fill-opacity:1"
     d="m 212.27904,249.53504 28.2288,-10.16224 1.12896,-10.16224 -5.64544,-33.87424 -28.2288,-13.54976 -11.29152,7.64576 2.25824,27.35776 7.90432,30.48672 z"
     id="_41683912"
     inkscape:connector-curvature="0"
     sodipodi:nodetypes="ccccccccc" /><path
     style="fill:#7450cf"
     d="m 205.50432,254.05184 6.77472,-4.5168 -5.64544,-2.25824 z"
     id="_41579232"
     inkscape:connector-curvature="0"
     sodipodi:nodetypes="cccc" /><path
     style="fill:#56f718"
     d="m 341.00096,249.53504 -1.1296,4.5168 36.1344,-3.38752 0,-21.45376 z"
     id="_41496816"
     inkscape:connector-curvature="0"
     sodipodi:nodetypes="ccccc" /><path
     style="fill:#1e13aa"
     d="m 204.37504,255.1808 1.12928,-1.12896 1.12928,-6.77504 -7.90432,-30.48672 -35.0032,-12.4208 -6.77504,11.29152 31.87424,37.26176 2,1.12928 9.03328,2.25824 z"
     id="_41510584"
     inkscape:connector-curvature="0"
     sodipodi:nodetypes="cccccccccc" /><path
     style="fill:#2e70eb"
     d="m 55.328,252.92256 11.29152,-25.97024 -11.29152,-7.904 -2.25824,0 -36.13248,15.808 -6.77504,10.16224 1.12928,1.12928 18.06624,10.16224 z"
     id="_41532704"
     inkscape:connector-curvature="0"
     sodipodi:nodetypes="ccccccccc" /><path
     style="fill:#b1589f"
     d="m 125.33504,208.88608 -18.06624,20.32448 5.64576,27.09952 27.0992,-27.09952 4.5168,-13.54976 z"
     id="_41579032"
     inkscape:connector-curvature="0"
     sodipodi:nodetypes="cccccc" /><path
     style="fill:#fc7e24;fill-opacity:1"
     d="m 55.328,252.92256 6.77504,6.77504 5.64576,-32.74528 -1.12928,0 z"
     id="_42319312"
     inkscape:connector-curvature="0"
     sodipodi:nodetypes="ccccc" /><path
     style="fill:#539c8a;fill-opacity:1"
     d="m 313.90208,263.0848 10.16128,-44.03648 -13.54848,-13.54976 -6.77504,0 -5.64576,1.12928 -10.16224,9.03296 -7.904,9.03328 0,2.25824 z"
     id="_42520040"
     inkscape:connector-curvature="0"
     sodipodi:nodetypes="ccccccccc" /><path
     style="fill:#9aa127"
     d="m 144.53056,215.6608 -4.5168,13.54976 -4.51648,36.13248 53.328,-12.42048 -31.87424,-37.26176 z"
     id="_42280416"
     inkscape:connector-curvature="0"
     sodipodi:nodetypes="cccccc" /><path
     style="fill:#1ebdd7"
     d="m 188.82528,252.92256 -53.328,12.42048 -13.54976,12.4208 49.68256,-1.12928 19.1952,-22.58272 z"
     id="_42550312"
     inkscape:connector-curvature="0"
     sodipodi:nodetypes="cccccc" /><path
     style="fill:#facb87;fill-opacity:1"
     d="m 333.09696,267.6016 6.7744,-13.54976 1.1296,-4.5168 -9.0336,-28.22848 -7.904,-2.25824 -10.16128,44.03648 2.25824,3.38752 11.29184,4.51648 z"
     id="_41282696"
     inkscape:connector-curvature="0"
     sodipodi:nodetypes="ccccccccc" /><path
     style="fill:#f7202c"
     d="m 112.91456,256.31008 -5.64576,-27.09952 -29.35776,-6.77472 -10.16224,4.51648 -5.64576,32.74528 1.12896,2.25824 49.68256,9.03296 z"
     id="_80393744"
     inkscape:connector-curvature="0"
     sodipodi:nodetypes="cccccccc" /><path
     style="fill:#ec4248"
     d="m 246.1536,256.31008 -4.5168,-16.93728 -1.12896,0 -28.2288,10.16224 -6.77472,4.5168 -1.12928,1.12896 13.54976,16.93728 z"
     id="_41242800"
     inkscape:connector-curvature="0"
     sodipodi:nodetypes="cccccccc" /><path
     style="fill:#c6919c"
     d="m 313.90208,263.0848 -33.87424,-36.13248 -25.97024,10.16224 31.616,31.616 5.64576,4.5168 24.84096,-6.77504 z"
     id="_42498264"
     inkscape:connector-curvature="0"
     sodipodi:nodetypes="ccccccc" /><path
     style="fill:#ce7805"
     d="m 135.49728,265.34304 4.51648,-36.13248 -27.0992,27.09952 0,14.67872 2.25824,10.16256 6.77472,-3.38752 z"
     id="_42839008"
     inkscape:connector-curvature="0"
     sodipodi:nodetypes="ccccccc" /><path
     style="fill:#cb6c07;fill-opacity:1"
     d="m 285.6736,268.73056 -31.616,-31.616 -12.4208,2.25824 4.5168,16.93728 14.67872,20.32448 12.4208,3.38752 z"
     id="_41404272"
     inkscape:connector-curvature="0"
     sodipodi:nodetypes="ccccccc" /><path
     style="fill:#163336;fill-opacity:1"
     d="m 273.25312,280.02208 5.64544,2.25824 12.4208,-9.03296 -5.64576,-4.5168 z"
     id="_41373896"
     inkscape:connector-curvature="0"
     sodipodi:nodetypes="ccccc" /><path
     style="fill:#acba0c"
     d="m 333.09696,267.6016 -5.6448,3.3872 0,1.12928 15.808,14.67872 4.5152,1.12928 z"
     id="_42540648"
     inkscape:connector-curvature="0"
     sodipodi:nodetypes="cccccc" /><path
     style="fill:#5cd772"
     d="M 29.35776,256.31008 11.29152,246.14784 0,248.40608 0,283.4096 21.45376,287.92608 31.616,274.37632 Z"
     id="_42644408"
     inkscape:connector-curvature="0"
     sodipodi:nodetypes="ccccccc" /><path
     style="fill:#15116e"
     d="m 376.00576,286.7968 0,-36.13248 -36.1344,3.38752 -6.7744,13.54976 14.6784,20.32448 7.904,3.38752 z"
     id="_43197152"
     inkscape:connector-curvature="0"
     sodipodi:nodetypes="ccccccc" /><path
     style="fill:#cc881a"
     d="m 171.63008,276.63456 15.808,15.808 12.42048,-36.13248 -9.03328,-2.25824 z"
     id="_43180752"
     inkscape:connector-curvature="0"
     sodipodi:nodetypes="ccccc" /><path
     style="fill:#842c7b"
     d="m 63.232,261.95584 16.93728,35.00352 33.87424,-11.29152 1.12928,-4.51648 -2.25824,-10.16256 z"
     id="_42029760"
     inkscape:connector-curvature="0"
     sodipodi:nodetypes="cccccc" /><path
     style="fill:#4e9d68"
     d="m 63.232,261.95584 -1.12896,-2.25824 -6.77504,-6.77504 -25.97024,3.38752 2.25824,18.06624 44.0368,28.2288 4.51648,-5.64576 z"
     id="_42309240"
     inkscape:connector-curvature="0"
     sodipodi:nodetypes="cccccccc" /><path
     style="fill:#6fa857"
     d="m 317.49273,292.61444 13.34823,9.99068 12.4192,-15.80832 -15.808,-14.67872 z"
     id="_40869808"
     inkscape:connector-curvature="0"
     sodipodi:nodetypes="ccccc" /><path
     style="fill:#9e4902;fill-opacity:1"
     d="m 117.43104,300.34656 15.808,7.904 50.81152,-9.03296 3.38752,-2.25824 0,-4.5168 -15.808,-15.808 -49.68256,1.12928 -6.77472,3.38752 -1.12928,4.51648 2.25824,13.54976 z"
     id="_41089720"
     inkscape:connector-curvature="0"
     sodipodi:nodetypes="ccccccccccc" /><path
     style="fill:#bda92b"
     d="m 221.31232,305.99232 -3.38752,-33.87424 -13.54976,-16.93728 -4.51648,1.12928 -12.42048,36.13248 0,4.5168 23.712,12.42048 z"
     id="_42272264"
     inkscape:connector-curvature="0"
     sodipodi:nodetypes="cccccccc" /><path
     id="_41399856"
     class="fil116"
     d="m 217.9248,272.11808 3.38752,33.87424 23.712,9.03328 15.808,-38.39104 -14.67872,-20.32448 z"
     inkscape:connector-curvature="0"
     style="fill:#1b72e7"
     sodipodi:nodetypes="cccccc" /><path
     style="fill:#167e3a"
     d="m 116.30176,299.2176 -2.25824,-13.54976 -33.87424,11.29152 -4.51648,5.64576 0,6.77472 14.67872,3.38752 z"
     id="_42816256"
     inkscape:connector-curvature="0"
     sodipodi:nodetypes="ccccccc" /><path
     style="fill:#50a864"
     d="m 317.49663,292.60662 9.95553,-20.48854 0,-1.12928 -11.29184,-4.51648 -24.84096,6.77504 -12.4208,9.02906 5.64185,33.86637 7.28553,-0.39684 z"
     id="_41042184"
     inkscape:connector-curvature="0"
     sodipodi:nodetypes="ccccccccc" /><path
     style="fill:#2894ee;fill-opacity:1"
     d="m 116.30176,299.2176 -25.97024,13.54976 11.29152,5.64576 15.808,-18.06656 z"
     id="_41029120"
     inkscape:connector-curvature="0"
     sodipodi:nodetypes="ccccc" /><path
     style="fill:#501ab9"
     d="m 0,283.4096 0,33.87424 24.548243,2.59165 -3.094176,-31.94803 z"
     id="_41030456"
     inkscape:connector-curvature="0"
     sodipodi:nodetypes="ccccc" /><path
     style="fill:#594d4c"
     d="m 376.00576,324.0576 0,-37.2608 -20.3264,4.5168 z"
     id="_41023008"
     inkscape:connector-curvature="0"
     sodipodi:nodetypes="cccc" /><path
     id="_40496536"
     class="fil122"
     d="m 245.02432,315.0256 10.16224,13.54976 16.93728,-2.25824 2.25824,-1.12928 10.16224,-9.03328 c -1.46732,-11.31244 -3.70369,-22.61028 -5.64576,-33.87424 l -5.64544,-2.25824 -12.4208,-3.38752 z"
     inkscape:connector-curvature="0"
     style="fill:#2f23f0"
     sodipodi:nodetypes="ccccccccc" /><path
     style="fill:#924a38"
     d="m 274.38208,325.1872 -2.25824,1.1296 2.25824,1.1296 z"
     id="_41066072"
     inkscape:connector-curvature="0"
     sodipodi:nodetypes="cccc" /><path
     style="fill:#87bda6"
     d="m 57.58624,322.9312 18.06656,-13.55136 0,-6.77472 -44.0368,-28.2288 -10.16224,13.54976 3.09792,31.94592 12.71008,10.9632 z"
     id="_41069656"
     inkscape:connector-curvature="0"
     sodipodi:nodetypes="cccccccc" /><path
     style="fill:#6e3ec7"
     d="m 326.32256,326.3168 4.5184,-23.71168 -13.35214,-9.99068 -25.6693,23.13724 15.30784,18.46912 z"
     id="_41081856"
     inkscape:connector-curvature="0"
     sodipodi:nodetypes="cccccc" /><path
     style="fill:#6b926a"
     d="m 133.23904,308.25056 30.48704,32.74464 1.12896,0 19.19552,-41.7776 z"
     id="_42890528"
     inkscape:connector-curvature="0"
     sodipodi:nodetypes="ccccc" /><path
     style="fill:#e89188"
     d="m 355.67936,291.3136 -7.904,-3.38752 -4.5152,-1.12928 -12.4192,15.80832 -4.5184,23.71168 49.6832,20.3264 0,-22.5856 z"
     id="_42890624"
     inkscape:connector-curvature="0"
     sodipodi:nodetypes="cccccccc" /><path
     style="fill:#1205e6"
     d="m 304.86912,343.2544 2.25824,-9.0336 -15.30784,-18.46912 -7.2752,0.40288 -10.16224,9.03264 0,2.2592 28.2288,20.3232 z"
     id="_41091600"
     inkscape:connector-curvature="0"
     sodipodi:nodetypes="cccccccc" /><path
     style="fill:#5daae6"
     d="M 24.55168,319.872 0,317.28384 l 0,29.35936 29.35776,2.256 7.904,-18.064 z"
     id="_41970200"
     inkscape:connector-curvature="0"
     sodipodi:nodetypes="cccccc" /><path
     style="fill:#e57191"
     d="m 211.15008,309.37984 -23.712,-12.42048 -3.38752,2.25824 -19.19552,41.7776 30.48704,7.904 14.67872,-1.1296 z"
     id="_80339640"
     inkscape:connector-curvature="0"
     sodipodi:nodetypes="ccccccc" /><path
     style="fill:#ea005b"
     d="m 255.18656,328.576 -10.16224,-13.5504 -23.712,-9.03328 -10.16224,3.38752 -1.12928,38.38976 4.5168,5.648 35.0032,-13.552 z"
     id="_42062472"
     inkscape:connector-curvature="0"
     sodipodi:nodetypes="cccccccc" /><path
     style="fill:#e89188"
     d="m 302.61088,347.7696 3.3872,6.7776 3.38752,-1.1296 -4.51648,-10.1632 z"
     id="_41283488"
     inkscape:connector-curvature="0"
     sodipodi:nodetypes="ccccc" /><path
     style="fill:#33fc35"
     d="m 376.00576,359.0624 0,-12.4192 -49.6832,-20.3264 -19.1952,7.904 -2.25824,9.0336 4.51648,10.1632 63.23136,6.7744 z"
     id="_41984544"
     inkscape:connector-curvature="0"
     sodipodi:nodetypes="cccccccc" /><path
     style="fill:#8fdfd3"
     d="m 163.72608,340.9952 -30.48704,-32.74464 -15.808,-7.904 -15.808,18.06656 4.51648,42.90848 13.54976,1.1296 39.52,-11.2928 z"
     id="_43090736"
     inkscape:connector-curvature="0"
     sodipodi:nodetypes="cccccccc" /><path
     style="fill:#cf49d7"
     d="m 214.5376,353.4176 -4.5168,-5.648 -14.67872,1.1296 14.67872,15.808 z"
     id="_41684696"
     inkscape:connector-curvature="0"
     sodipodi:nodetypes="ccccc" /><path
     style="fill:#cb652c"
     d="m 376.00576,364.7072 0,-5.6448 -3.3888,1.1296 z"
     id="_42280200"
     inkscape:connector-curvature="0"
     sodipodi:nodetypes="cccc" /><path
     style="fill:#16bffd"
     d="m 372.61696,360.192 -63.23136,-6.7744 -3.38752,1.1296 -6.77472,21.4528 76.7824,0 0,-11.2928 z"
     id="_43085432"
     inkscape:connector-curvature="0"
     sodipodi:nodetypes="ccccccc" /><path
     style="fill:#f1c661"
     d="m 57.58624,322.9312 -20.32448,7.904 -7.904,18.064 7.904,22.5824 27.09952,-9.0304 z"
     id="_41239344"
     inkscape:connector-curvature="0"
     sodipodi:nodetypes="cccccc" /><path
     style="fill:#92436d;fill-opacity:1"
     d="m 101.62304,318.41312 -11.29152,-5.64576 -14.67872,-3.38752 -18.06656,13.55136 6.77504,39.52 37.26176,11.2896 4.51648,-12.4192 z"
     id="_41573016"
     inkscape:connector-curvature="0"
     sodipodi:nodetypes="cccccccc" /><path
     style="fill:#1e1245"
     d="M 0,346.6432 0,376 l 37.26176,0 0,-4.5184 -7.904,-22.5824 z"
     id="_43240856"
     inkscape:connector-curvature="0"
     sodipodi:nodetypes="cccccc" /><path
     style="fill:#580dbe"
     d="m 64.36128,362.4512 -27.09952,9.0304 0,4.5184 65.49024,0 -1.12896,-2.2592 z"
     id="_43379512"
     inkscape:connector-curvature="0"
     sodipodi:nodetypes="cccccc" /><path
     style="fill:#4b7bb9"
     d="m 106.13952,361.3216 -4.51648,12.4192 1.12896,2.2592 18.06656,0 -1.12928,-13.5488 z"
     id="_43379128"
     inkscape:connector-curvature="0"
     sodipodi:nodetypes="cccccc" /><path
     style="fill:#6ab5ae"
     d="m 119.68928,362.4512 1.12928,13.5488 39.52,0 -1.12928,-24.8416 z"
     id="_42381072"
     inkscape:connector-curvature="0"
     sodipodi:nodetypes="ccccc" /><path
     style="fill:#845a28;fill-opacity:1"
     d="m 210.0208,364.7072 -14.67872,-15.808 -30.48704,-7.904 -1.12896,0 -4.5168,10.1632 1.12928,24.8416 49.68224,0 0,-6.7744 z"
     id="_42483920"
     inkscape:connector-curvature="0"
     sodipodi:nodetypes="ccccccccc" /><path
     style="fill:#18126b"
     d="m 258.57408,376 -9.03328,-36.1344 -35.0032,13.552 -4.50899,11.28458 L 210.0208,376 Z"
     id="_43355096"
     inkscape:connector-curvature="0"
     sodipodi:nodetypes="cccccc" /><path
     style="fill:#326152"
     d="m 305.99808,354.5472 -3.3872,-6.7776 -28.2288,-20.3232 -2.25824,-1.1296 -16.93728,2.2592 -5.64576,11.2896 9.03328,36.1344 40.64928,0 z"
     id="_41502072"
     inkscape:connector-curvature="0"
     sodipodi:nodetypes="ccccccccc" /></svg>